<?xml version="1.0" encoding="UTF-8" standalone="no"?>
<!DOCTYPE svg PUBLIC "-//W3C//DTD SVG 1.1//EN"
 "http://www.w3.org/Graphics/SVG/1.1/DTD/svg11.dtd">
<!-- Generated by graphviz version 14.1.1 (20251213.1925)
 -->
<!-- Title: balancer_deployments Pages: 1 -->
<svg width="680pt" height="311pt"
 viewBox="0.00 0.00 680.00 311.00" xmlns="http://www.w3.org/2000/svg" xmlns:xlink="http://www.w3.org/1999/xlink">
<g id="graph0" class="graph" transform="scale(1 1) rotate(0) translate(4 307.25)">
<title>balancer_deployments</title>
<polygon fill="white" stroke="none" points="-4,4 -4,-307.25 676,-307.25 676,4 -4,4"/>
<g id="clust1" class="cluster">
<title>cluster_weighted_pool</title>
<polygon fill="none" stroke="#dddddd" stroke-dasharray="5,2" points="8,-8 8,-295.25 174,-295.25 174,-8 8,-8"/>
<text xml:space="preserve" text-anchor="middle" x="91" y="-281.75" font-family="Times,serif" font-size="10.00">weighted&#45;pool</text>
</g>
<g id="clust2" class="cluster">
<title>cluster_stable_pool</title>
<polygon fill="none" stroke="#dddddd" stroke-dasharray="5,2" points="182,-152 182,-295.25 348,-295.25 348,-152 182,-152"/>
<text xml:space="preserve" text-anchor="middle" x="265" y="-281.75" font-family="Times,serif" font-size="10.00">stable&#45;pool</text>
</g>
<g id="clust3" class="cluster">
<title>cluster_v3_weighted_pool</title>
<polygon fill="none" stroke="#dddddd" stroke-dasharray="5,2" points="356,-152 356,-295.25 506,-295.25 506,-152 356,-152"/>
<text xml:space="preserve" text-anchor="middle" x="431" y="-281.75" font-family="Times,serif" font-size="10.00">v3&#45;weighted&#45;pool</text>
</g>
<g id="clust4" class="cluster">
<title>cluster_v3_stable_pool</title>
<polygon fill="none" stroke="#dddddd" stroke-dasharray="5,2" points="514,-152 514,-295.25 664,-295.25 664,-152 514,-152"/>
<text xml:space="preserve" text-anchor="middle" x="589" y="-281.75" font-family="Times,serif" font-size="10.00">v3&#45;stable&#45;pool</text>
</g>
<!-- n_20210418_weighted_pool_deprecated -->
<g id="node1" class="node">
<title>n_20210418_weighted_pool_deprecated</title>
<polygon fill="#cce5ff" stroke="#004085" stroke-dasharray="5,2" points="165.75,-268 16.25,-268 16.25,-232 165.75,-232 165.75,-268"/>
<text xml:space="preserve" text-anchor="middle" x="91" y="-251.2" font-family="Helvetica,sans-Serif" font-size="9.00">Weighted Pools of up to 8 tokens</text>
<text xml:space="preserve" text-anchor="middle" x="91" y="-241.45" font-family="Helvetica,sans-Serif" font-size="9.00">2021&#45;04&#45;18 (v1, deprecated)</text>
</g>
<!-- n_20220908_weighted_pool_v2_deprecated -->
<g id="node2" class="node">
<title>n_20220908_weighted_pool_v2_deprecated</title>
<polygon fill="#cce5ff" stroke="#004085" stroke-dasharray="5,2" points="157.5,-196 24.5,-196 24.5,-160 157.5,-160 157.5,-196"/>
<text xml:space="preserve" text-anchor="middle" x="91" y="-179.2" font-family="Helvetica,sans-Serif" font-size="9.00">Weighted Pool V2</text>
<text xml:space="preserve" text-anchor="middle" x="91" y="-169.45" font-family="Helvetica,sans-Serif" font-size="9.00">2022&#45;09&#45;08 (v2, deprecated)</text>
</g>
<!-- n_20210418_weighted_pool_deprecated&#45;&gt;n_20220908_weighted_pool_v2_deprecated -->
<g id="edge1" class="edge">
<title>n_20210418_weighted_pool_deprecated&#45;&gt;n_20220908_weighted_pool_v2_deprecated</title>
<path fill="none" stroke="#888888" stroke-dasharray="5,2" d="M91,-231.7C91,-224.41 91,-215.73 91,-207.54"/>
<polygon fill="#888888" stroke="#888888" points="94.5,-207.62 91,-197.62 87.5,-207.62 94.5,-207.62"/>
</g>
<!-- n_20230206_weighted_pool_v3_deprecated -->
<g id="node3" class="node">
<title>n_20230206_weighted_pool_v3_deprecated</title>
<polygon fill="#cce5ff" stroke="#004085" stroke-dasharray="5,2" points="157.5,-124 24.5,-124 24.5,-88 157.5,-88 157.5,-124"/>
<text xml:space="preserve" text-anchor="middle" x="91" y="-107.2" font-family="Helvetica,sans-Serif" font-size="9.00">Weighted Pool V3</text>
<text xml:space="preserve" text-anchor="middle" x="91" y="-97.45" font-family="Helvetica,sans-Serif" font-size="9.00">2023&#45;02&#45;06 (v3, deprecated)</text>
</g>
<!-- n_20220908_weighted_pool_v2_deprecated&#45;&gt;n_20230206_weighted_pool_v3_deprecated -->
<g id="edge2" class="edge">
<title>n_20220908_weighted_pool_v2_deprecated&#45;&gt;n_20230206_weighted_pool_v3_deprecated</title>
<path fill="none" stroke="#888888" stroke-dasharray="5,2" d="M91,-159.7C91,-152.41 91,-143.73 91,-135.54"/>
<polygon fill="#888888" stroke="#888888" points="94.5,-135.62 91,-125.62 87.5,-135.62 94.5,-135.62"/>
</g>
<!-- n_20230320_weighted_pool_v4_active -->
<g id="node4" class="node">
<title>n_20230320_weighted_pool_v4_active</title>
<polygon fill="#cce5ff" stroke="#004085" points="146.25,-52 35.75,-52 35.75,-16 146.25,-16 146.25,-52"/>
<text xml:space="preserve" text-anchor="middle" x="91" y="-35.2" font-family="Helvetica,sans-Serif" font-size="9.00">Weighted Pool V4</text>
<text xml:space="preserve" text-anchor="middle" x="91" y="-25.45" font-family="Helvetica,sans-Serif" font-size="9.00">2023&#45;03&#45;20 (v4, active)</text>
</g>
<!-- n_20230206_weighted_pool_v3_deprecated&#45;&gt;n_20230320_weighted_pool_v4_active -->
<g id="edge3" class="edge">
<title>n_20230206_weighted_pool_v3_deprecated&#45;&gt;n_20230320_weighted_pool_v4_active</title>
<path fill="none" stroke="#888888" stroke-dasharray="5,2" d="M91,-87.7C91,-80.41 91,-71.73 91,-63.54"/>
<polygon fill="#888888" stroke="#888888" points="94.5,-63.62 91,-53.62 87.5,-63.62 94.5,-63.62"/>
</g>
<!-- n_20210624_stable_pool_deprecated -->
<g id="node5" class="node">
<title>n_20210624_stable_pool_deprecated</title>
<polygon fill="#cce5ff" stroke="#004085" stroke-dasharray="5,2" points="333.38,-268 196.62,-268 196.62,-232 333.38,-232 333.38,-268"/>
<text xml:space="preserve" text-anchor="middle" x="265" y="-251.2" font-family="Helvetica,sans-Serif" font-size="9.00">Stable Pools of up to 5 tokens</text>
<text xml:space="preserve" text-anchor="middle" x="265" y="-241.45" font-family="Helvetica,sans-Serif" font-size="9.00">2021&#45;06&#45;24 (v1, deprecated)</text>
</g>
<!-- n_20220609_stable_pool_v2_deprecated -->
<g id="node6" class="node">
<title>n_20220609_stable_pool_v2_deprecated</title>
<polygon fill="#cce5ff" stroke="#004085" stroke-dasharray="5,2" points="340.12,-196 189.88,-196 189.88,-160 340.12,-160 340.12,-196"/>
<text xml:space="preserve" text-anchor="middle" x="265" y="-179.2" font-family="Helvetica,sans-Serif" font-size="9.00">Stable Pools V2 of up to 5 tokens</text>
<text xml:space="preserve" text-anchor="middle" x="265" y="-169.45" font-family="Helvetica,sans-Serif" font-size="9.00">2022&#45;06&#45;09 (v2, deprecated)</text>
</g>
<!-- n_20210624_stable_pool_deprecated&#45;&gt;n_20220609_stable_pool_v2_deprecated -->
<g id="edge4" class="edge">
<title>n_20210624_stable_pool_deprecated&#45;&gt;n_20220609_stable_pool_v2_deprecated</title>
<path fill="none" stroke="#888888" stroke-dasharray="5,2" d="M265,-231.7C265,-224.41 265,-215.73 265,-207.54"/>
<polygon fill="#888888" stroke="#888888" points="268.5,-207.62 265,-197.62 261.5,-207.62 268.5,-207.62"/>
</g>
<!-- n_20241205_v3_weighted_pool_deprecated -->
<g id="node7" class="node">
<title>n_20241205_v3_weighted_pool_deprecated</title>
<polygon fill="#d4edda" stroke="#155724" stroke-dasharray="5,2" points="497.5,-268 364.5,-268 364.5,-232 497.5,-232 497.5,-268"/>
<text xml:space="preserve" text-anchor="middle" x="431" y="-251.2" font-family="Helvetica,sans-Serif" font-size="9.00">V3 Weighted Pool</text>
<text xml:space="preserve" text-anchor="middle" x="431" y="-241.45" font-family="Helvetica,sans-Serif" font-size="9.00">2024&#45;12&#45;05 (v1, deprecated)</text>
</g>
<!-- n_20260115_v3_weighted_pool_v2_active -->
<g id="node8" class="node">
<title>n_20260115_v3_weighted_pool_v2_active</title>
<polygon fill="#d4edda" stroke="#155724" points="486.25,-196 375.75,-196 375.75,-160 486.25,-160 486.25,-196"/>
<text xml:space="preserve" text-anchor="middle" x="431" y="-179.2" font-family="Helvetica,sans-Serif" font-size="9.00">V3 Weighted Pool (V2)</text>
<text xml:space="preserve" text-anchor="middle" x="431" y="-169.45" font-family="Helvetica,sans-Serif" font-size="9.00">2026&#45;01&#45;15 (v2, active)</text>
</g>
<!-- n_20241205_v3_weighted_pool_deprecated&#45;&gt;n_20260115_v3_weighted_pool_v2_active -->
<g id="edge5" class="edge">
<title>n_20241205_v3_weighted_pool_deprecated&#45;&gt;n_20260115_v3_weighted_pool_v2_active</title>
<path fill="none" stroke="#888888" stroke-dasharray="5,2" d="M431,-231.7C431,-224.41 431,-215.73 431,-207.54"/>
<polygon fill="#888888" stroke="#888888" points="434.5,-207.62 431,-197.62 427.5,-207.62 434.5,-207.62"/>
</g>
<!-- n_20241205_v3_stable_pool_deprecated -->
<g id="node9" class="node">
<title>n_20241205_v3_stable_pool_deprecated</title>
<polygon fill="#d4edda" stroke="#155724" stroke-dasharray="5,2" points="655.5,-268 522.5,-268 522.5,-232 655.5,-232 655.5,-268"/>
<text xml:space="preserve" text-anchor="middle" x="589" y="-251.2" font-family="Helvetica,sans-Serif" font-size="9.00">V3 Stable Pool</text>
<text xml:space="preserve" text-anchor="middle" x="589" y="-241.45" font-family="Helvetica,sans-Serif" font-size="9.00">2024&#45;12&#45;05 (v1, deprecated)</text>
</g>
<!-- n_20250324_v3_stable_pool_v2_active -->
<g id="node10" class="node">
<title>n_20250324_v3_stable_pool_v2_active</title>
<polygon fill="#d4edda" stroke="#155724" points="644.25,-196 533.75,-196 533.75,-160 644.25,-160 644.25,-196"/>
<text xml:space="preserve" text-anchor="middle" x="589" y="-179.2" font-family="Helvetica,sans-Serif" font-size="9.00">V3 Stable Pool V2</text>
<text xml:space="preserve" text-anchor="middle" x="589" y="-169.45" font-family="Helvetica,sans-Serif" font-size="9.00">2025&#45;03&#45;24 (v2, active)</text>
</g>
<!-- n_20241205_v3_stable_pool_deprecated&#45;&gt;n_20250324_v3_stable_pool_v2_active -->
<g id="edge6" class="edge">
<title>n_20241205_v3_stable_pool_deprecated&#45;&gt;n_20250324_v3_stable_pool_v2_active</title>
<path fill="none" stroke="#888888" stroke-dasharray="5,2" d="M589,-231.7C589,-224.41 589,-215.73 589,-207.54"/>
<polygon fill="#888888" stroke="#888888" points="592.5,-207.62 589,-197.62 585.5,-207.62 592.5,-207.62"/>
</g>
</g>
</svg>
